<?xml version="1.0" encoding="UTF-8" standalone="no"?>
<!DOCTYPE svg PUBLIC "-//W3C//DTD SVG 1.1//EN" "http://www.w3.org/Graphics/SVG/1.1/DTD/svg11.dtd">
<svg width="100%" height="100%" viewBox="0 0 1000 1000" version="1.1" xmlns="http://www.w3.org/2000/svg" xmlns:xlink="http://www.w3.org/1999/xlink" xml:space="preserve" xmlns:serif="http://www.serif.com/" style="fill-rule:evenodd;clip-rule:evenodd;stroke-linejoin:round;stroke-miterlimit:2;">
    <g transform="matrix(0.282285,0,0,0.282285,131.007,378.197)">
        <path d="M765.88,165.87L849.74,48.49L745.24,141.78C667.27,57.55 555.82,4.76 432,4.76C196.32,4.76 5.29,195.8 5.29,431.49C5.29,667.17 196.32,858.22 432,858.22C667.68,858.22 858.75,667.17 858.75,431.49C858.75,331.04 823.95,238.77 765.88,165.87ZM728.92,572.46C728.92,658.59 659.11,728.41 572.97,728.41L291.03,728.41C204.91,728.41 135.07,658.58 135.07,572.46L135.07,290.53C135.07,204.38 204.91,134.56 291.03,134.56L572.97,134.56C620.57,134.56 663.11,155.94 691.72,189.55L430.34,422.89L253.3,302.52L381.46,549.34C382.26,550.69 383.42,551.9 384.34,553.21C384.84,553.89 385.31,554.55 385.86,555.22C387.12,556.91 388.16,558.7 389.64,560.29C390.87,561.61 392.32,562.61 393.67,563.81C393.69,563.86 393.73,563.89 393.73,563.89C393.81,563.96 393.86,563.98 393.88,564.02C410.17,578.65 432.01,583.61 452.23,578.6C452.42,578.56 452.62,578.51 452.82,578.45C456.46,577.52 460.01,576.26 463.48,574.67C464.04,574.43 464.58,574.15 465.1,573.89C468.15,572.39 471.07,570.66 473.91,568.64C474.8,568.03 475.63,567.34 476.51,566.66C477.92,565.56 479.43,564.68 480.75,563.43C481.77,562.49 482.51,561.37 483.43,560.39C483.87,559.93 484.38,559.6 484.82,559.14L486.23,557.22C488.03,555.03 489.7,552.79 491.18,550.43L717.87,233.1C724.93,250.89 728.93,270.24 728.93,290.54L728.93,572.46L728.92,572.46Z" style="fill-rule:nonzero;"/>
        <g>
            <g id="Logotype_3_">
                <path d="M1417.86,737.37C1223.22,737.37 1092.43,614.06 1092.43,430.56C1092.43,249.9 1226.26,123.75 1417.86,123.75C1544.21,123.75 1609.57,172.03 1626.19,186.39L1587.1,286.96C1561.94,266.22 1500.9,229.86 1426.19,229.86C1306.38,229.86 1225.88,309.45 1225.88,427.89C1225.88,543.97 1308.24,625.04 1426.19,625.04C1511.35,625.04 1565.97,591.52 1594.91,566.42L1637.07,660.91C1583.21,711.64 1509.49,737.37 1417.86,737.37Z" style="fill-rule:nonzero;"/>
                <rect x="1696.72" y="132.62" width="129.73" height="594.09"/>
                <path d="M1924.01,726.71L1924.01,307.41L2053.75,307.41L2053.75,726.71L1924.01,726.71ZM1988.87,238.73C1943.29,238.73 1913.84,213.38 1913.84,174.15C1913.84,135.51 1944,109.55 1988.87,109.55C2033.74,109.55 2063.9,135.5 2063.9,174.15C2063.9,213.37 2034.45,238.73 1988.87,238.73Z" style="fill-rule:nonzero;"/>
                <path d="M2365.85,736.46C2219.84,736.46 2121.75,648.83 2121.75,518.38C2121.75,387.42 2219.85,299.41 2365.85,299.41C2511.31,299.41 2609.04,387.42 2609.04,518.38C2609.04,648.83 2511.31,736.46 2365.85,736.46ZM2365.85,393.11C2298.53,393.11 2253.31,442.38 2253.31,515.73C2253.31,589.06 2298.53,638.35 2365.85,638.35C2433.17,638.35 2478.39,589.06 2478.39,515.73C2478.39,442.38 2433.17,393.11 2365.85,393.11Z" style="fill-rule:nonzero;"/>
            </g>
        </g>
    </g>
</svg>
