<?xml version="1.0" encoding="UTF-8" standalone="no"?>
<!DOCTYPE svg PUBLIC "-//W3C//DTD SVG 1.1//EN" "http://www.w3.org/Graphics/SVG/1.1/DTD/svg11.dtd">
<svg width="100%" height="100%" viewBox="0 0 1000 1000" version="1.1" xmlns="http://www.w3.org/2000/svg" xmlns:xlink="http://www.w3.org/1999/xlink" xml:space="preserve" xmlns:serif="http://www.serif.com/" style="fill-rule:evenodd;clip-rule:evenodd;stroke-linejoin:round;stroke-miterlimit:2;">
    <g transform="matrix(0.796006,0,0,0.796006,500,500)">
        <g transform="matrix(1,0,0,1,-461.68,-98.355)">
            <clipPath id="_clip1">
                <rect x="0" y="0" width="923.36" height="196.71"/>
            </clipPath>
            <g clip-path="url(#_clip1)">
                <g id="Layer_1-2">
                    <path d="M135.08,77.98L64.53,118.72L64.54,118.72L135.09,77.99L135.08,77.98Z" style="fill:none;fill-rule:nonzero;"/>
                    <path d="M135.08,77.98L135.09,77.99L64.54,118.72L96.81,137.35L199.62,77.99L135.08,40.73L135.08,77.98Z" style="fill:rgb(53,205,187);fill-rule:nonzero;"/>
                    <path d="M64.54,0L64.54,37.26L102.82,59.36L135.08,40.73L64.54,0Z" style="fill:rgb(175,115,221);fill-rule:nonzero;"/>
                    <path d="M64.54,155.98L135.08,196.71L135.08,159.45L96.81,137.35L64.54,155.98Z" style="fill:rgb(249,163,97);fill-rule:nonzero;"/>
                    <path d="M64.54,118.72L64.53,118.72L135.08,77.98L102.82,59.36L0,118.72L64.54,155.98L64.54,118.72Z" style="fill:rgb(0,135,194);fill-rule:nonzero;"/>
                    <path d="M64.54,118.72L64.54,155.98L96.81,137.35L64.54,118.72Z" style="fill:rgb(169,41,30);fill-rule:nonzero;"/>
                    <path d="M135.08,77.98L135.08,40.73L102.82,59.36L135.08,77.98Z" style="fill:rgb(0,81,116);fill-rule:nonzero;"/>
                    <path d="M64.54,155.98L135.08,196.71L135.08,159.45L96.81,137.35L64.54,155.98Z" style="fill:rgb(249,163,97);fill-rule:nonzero;"/>
                    <path d="M260.72,159.44L260.72,138.14L330.8,58.54L260.72,58.54L260.72,37.24L359.52,37.24L359.52,58.54L289.44,138.14L359.52,138.14L359.52,159.44L260.72,159.44Z" style="fill:rgb(35,50,64);fill-rule:nonzero;"/>
                    <path d="M433.73,72.17L455.03,72.17L455.03,159.45L433.73,159.45L432.77,148.63C430.38,152.53 427.23,155.69 423.3,158.1C419.37,160.51 414.73,161.72 409.38,161.72C402.92,161.72 396.87,160.5 391.23,158.05C385.59,155.61 380.63,152.23 376.35,147.93C372.07,143.63 368.73,138.65 366.31,133.01C363.89,127.37 362.69,121.31 362.69,114.86C362.69,108.41 363.84,102.79 366.14,97.32C368.44,91.85 371.65,87.05 375.78,82.92C379.91,78.79 384.68,75.56 390.09,73.23C395.5,70.9 401.32,69.74 407.55,69.74C413.31,69.74 418.47,71.02 423.04,73.58C427.61,76.14 431.49,79.4 434.69,83.35L433.73,72.18L433.73,72.17ZM408.86,141.21C413.4,141.21 417.41,140.08 420.9,137.81C424.39,135.54 427.13,132.47 429.1,128.6C431.08,124.73 432.07,120.47 432.07,115.81C432.07,111.15 431.08,106.81 429.1,102.94C427.12,99.07 424.37,96 420.85,93.73C417.33,91.46 413.33,90.33 408.85,90.33C404.37,90.33 400.28,91.48 396.59,93.78C392.89,96.08 389.96,99.15 387.78,102.99C385.6,106.83 384.51,111.11 384.51,115.82C384.51,120.53 385.61,124.81 387.83,128.65C390.04,132.49 392.99,135.54 396.69,137.81C400.38,140.08 404.44,141.21 408.86,141.21Z" style="fill:rgb(35,50,64);fill-rule:nonzero;"/>
                    <path d="M545.83,159.44L545.83,138.14L615.91,58.54L545.83,58.54L545.83,37.24L644.63,37.24L644.63,58.54L574.55,138.14L644.63,138.14L644.63,159.44L545.83,159.44Z" style="fill:rgb(35,50,64);fill-rule:nonzero;"/>
                    <path d="M691.82,161.71C683.79,161.71 676.47,159.64 669.87,155.51C663.27,151.38 658,145.84 654.07,138.88C650.14,131.93 648.18,124.23 648.18,115.8C648.18,109.4 649.31,103.42 651.58,97.86C653.85,92.3 656.98,87.42 660.96,83.2C664.94,78.98 669.59,75.68 674.88,73.29C680.17,70.9 685.82,69.71 691.81,69.71C699.84,69.71 707.16,71.78 713.76,75.91C720.36,80.04 725.63,85.6 729.56,92.58C733.49,99.56 735.45,107.3 735.45,115.8C735.45,122.14 734.32,128.08 732.05,133.6C729.78,139.13 726.65,144 722.67,148.22C718.68,152.44 714.06,155.74 708.79,158.13C703.52,160.52 697.87,161.71 691.81,161.71L691.82,161.71ZM691.82,140.41C696.07,140.41 699.88,139.28 703.25,137.01C706.62,134.74 709.29,131.74 711.24,128.02C713.19,124.3 714.16,120.22 714.16,115.8C714.16,111.38 713.16,107.12 711.15,103.36C709.14,99.61 706.44,96.61 703.03,94.37C699.63,92.13 695.89,91.01 691.81,91.01C687.73,91.01 683.84,92.14 680.46,94.41C677.09,96.68 674.41,99.71 672.43,103.49C670.45,107.27 669.46,111.37 669.46,115.8C669.46,120.23 670.48,124.56 672.51,128.28C674.55,132 677.27,134.96 680.67,137.14C684.07,139.32 687.78,140.41 691.8,140.41L691.82,140.41Z" style="fill:rgb(35,50,64);fill-rule:nonzero;"/>
                    <path d="M786.81,161.71C778.78,161.71 771.46,159.64 764.86,155.51C758.26,151.38 752.99,145.84 749.06,138.88C745.13,131.93 743.17,124.23 743.17,115.8C743.17,109.4 744.3,103.42 746.57,97.86C748.84,92.3 751.97,87.42 755.95,83.2C759.93,78.98 764.58,75.68 769.87,73.29C775.16,70.9 780.81,69.71 786.8,69.71C794.83,69.71 802.15,71.78 808.75,75.91C815.35,80.04 820.62,85.6 824.55,92.58C828.48,99.56 830.44,107.3 830.44,115.8C830.44,122.14 829.31,128.08 827.04,133.6C824.77,139.13 821.64,144 817.66,148.22C813.67,152.44 809.05,155.74 803.78,158.13C798.51,160.52 792.86,161.71 786.8,161.71L786.81,161.71ZM786.81,140.41C791.06,140.41 794.87,139.28 798.24,137.01C801.61,134.74 804.28,131.74 806.23,128.02C808.18,124.3 809.15,120.22 809.15,115.8C809.15,111.38 808.15,107.12 806.14,103.36C804.13,99.61 801.43,96.61 798.02,94.37C794.62,92.13 790.88,91.01 786.8,91.01C782.72,91.01 778.83,92.14 775.45,94.41C772.08,96.68 769.4,99.71 767.42,103.49C765.44,107.27 764.45,111.37 764.45,115.8C764.45,120.23 765.47,124.56 767.5,128.28C769.54,132 772.26,134.96 775.66,137.14C779.06,139.32 782.77,140.41 786.79,140.41L786.81,140.41Z" style="fill:rgb(35,50,64);fill-rule:nonzero;"/>
                    <path d="M923.36,104.29L923.36,159.45L902.07,159.45L902.07,109.88C902.07,106.45 901.23,103.32 899.54,100.5C897.85,97.68 895.6,95.44 892.78,93.78C889.96,92.12 886.83,91.29 883.4,91.29C879.97,91.29 876.84,92.12 874.02,93.78C871.2,95.44 868.96,97.68 867.3,100.5C865.64,103.32 864.81,106.45 864.81,109.88L864.81,159.45L843.51,159.45L843.42,72.17L864.72,72.17L864.81,79.94C867.78,76.8 871.33,74.31 875.46,72.48C879.59,70.65 884.04,69.73 888.81,69.73C895.15,69.73 900.94,71.29 906.18,74.4C911.42,77.51 915.59,81.67 918.7,86.88C921.81,92.09 923.37,97.89 923.37,104.29L923.36,104.29Z" style="fill:rgb(35,50,64);fill-rule:nonzero;"/>
                    <path d="M482.14,196.71L504.76,196.71L550.17,72.17L527.57,72.17L506.27,130.29L487.51,72.17L464.21,72.17L495.63,159.44L482.14,196.71Z" style="fill:rgb(35,50,64);fill-rule:nonzero;"/>
                </g>
            </g>
        </g>
    </g>
</svg>
