<svg xmlns="http://www.w3.org/2000/svg" width="96" height="96" viewBox="0 0 96 96"><g fill="none"><path d="M0 0h96v96H0z"/><path fill="#FFF" d="M95.619 21.415 48.296 89.622.639 21.415 9.452 5.05h77.823z"/><g fill-rule="evenodd"><path fill="#D52229" d="m48.333 18.23-7.14-13.18h15.029zm8.828-13.18h13.556l-7.072 12.513zm14.887 0h14.333l-6.83 12.576zm15.672.86 7.024 13.754H80.25zm-8.803 13.754H64.282l7.12-12.598zm-15.97 0H49.325l7.299-12.196zm-46.61 0H1.607l7.366-13.77zM10.322 5.05h13.785l-7.082 12.533zm15.118 0h14.418l-7.105 12.583-2.509-4.318zm21.863 14.614H33.43l7.08-12.54zm-15.206 0H17.673l7.11-12.584 4.088 7.033z"/><path fill="#9D1E23" d="m48.333 18.23-.158-13.18h8.047zm8.828-13.18h13.556l-7.072 12.513zm14.887 0h14.333l-6.83 12.576zm15.672.86 7.024 13.754H80.25zm-8.803 13.754H64.282l7.12-12.598zm-15.97 0H49.325l7.299-12.196z"/><path fill="#D52229" d="M48.296 89.622.639 21.415h94.98l-4.78 6.89-42.543 61.37zM14.96 27.38l33.215 48.436L81.914 27.38h-12.08L48.296 60.923 26.81 27.38z"/><path fill="#9D1E23" d="m48.296 60.923-.297-39.508h47.62l-4.78 6.89-42.543 61.37v-.053l-.06-13.892 33.678-48.35h-12.08zm-.12 14.893.06-.086z"/></g></g></svg>