<?xml version="1.0" encoding="UTF-8" standalone="no"?>
<!DOCTYPE svg PUBLIC "-//W3C//DTD SVG 1.1//EN" "http://www.w3.org/Graphics/SVG/1.1/DTD/svg11.dtd">
<svg width="100%" height="100%" viewBox="0 0 486 180" version="1.1" xmlns="http://www.w3.org/2000/svg" xmlns:xlink="http://www.w3.org/1999/xlink" xml:space="preserve" xmlns:serif="http://www.serif.com/" style="fill-rule:evenodd;clip-rule:evenodd;stroke-linejoin:round;stroke-miterlimit:2;">
    <g>
        <path d="M200.868,124.351L200.889,136.373C200.902,144.147 204.959,149.549 215.177,149.531C225.395,149.513 229.433,144.096 229.419,136.483L229.402,126.825C229.394,122.136 230.714,120.932 232.997,120.286L232.995,119.044L223.298,119.061L223.3,120.304C225.585,120.941 226.91,122.141 226.918,126.829L226.935,136.487C226.947,143.259 223.386,146.391 216.654,146.403C209.962,146.415 206.351,143.296 206.339,136.523L206.317,124.341C206.312,121.296 207.192,120.773 209.716,120.408L209.714,119.086L197.532,119.107L197.535,120.429C200.06,120.786 200.862,121.305 200.868,124.351ZM244.586,147.837C242.302,147.52 241.94,146.96 241.936,144.756L241.92,135.499C243.92,133.692 245.562,132.807 247.004,132.805C248.968,132.801 249.53,133.802 249.533,135.605L249.55,144.742C249.554,146.946 249.194,147.507 246.91,147.832L246.913,149.074L257.211,149.056L257.209,147.814C254.924,147.498 254.562,146.937 254.559,144.733L254.542,135.155C254.536,131.95 253.17,129.668 249.122,129.675C246.638,129.679 244.196,131.207 241.796,133.255L241.789,129.409L239.946,129.411L234.142,133.228L234.144,134.11L236.909,134.105L236.927,144.764C236.931,146.968 236.572,147.53 234.288,147.855L234.291,149.097L244.589,149.079L244.586,147.837ZM264.783,126.361C266.466,126.359 267.826,124.994 267.823,123.271C267.82,121.748 266.656,120.507 265.094,120.51C263.33,120.513 262.01,121.878 262.014,123.561C262.015,125.124 263.181,126.364 264.783,126.361ZM270.511,147.791C268.026,147.434 267.664,146.914 267.66,144.71L267.634,129.362L265.67,129.366L259.786,133.223L259.788,134.105L262.633,134.099L262.651,144.719C262.655,146.923 262.256,147.444 259.812,147.809L259.814,149.052L270.514,149.033L270.511,147.791ZM288.802,135.536C290.278,132.247 290.758,131.525 292.32,131.122L292.318,130L284.425,130.013L284.427,131.135C287.032,131.692 287.314,133.014 286.117,135.821L283.085,143.08L279.304,134.551C278.499,132.669 278.617,131.587 281.381,131.261L281.379,130.019L270.841,130.038L270.843,131.28C272.085,131.598 272.607,132.118 273.653,134.361L280.531,149.215L282.615,149.212L288.802,135.536ZM309.816,145.357L308.733,144.517C307.653,145.761 306.012,146.606 304.129,146.609C300.442,146.615 298.354,143.814 297.586,140.169L309.6,136.14C309.352,131.893 306.223,129.575 302.255,129.581C296.686,129.591 292.606,134.087 292.616,139.656C292.626,145.187 296.159,149.388 302.37,149.377C306.177,149.37 308.458,147.683 309.816,145.357ZM297.259,136.843C297.253,133.597 298.612,131.672 301.257,131.667C303.101,131.664 304.265,132.984 304.75,135.588L297.302,138.166C297.261,137.725 297.26,137.284 297.259,136.843ZM322.362,147.699C319.758,147.303 319.396,146.742 319.392,144.258L319.377,136.003C320.176,134.559 320.936,133.515 321.735,132.793C321.738,134.356 322.822,135.356 324.185,135.353C325.547,135.351 326.867,134.266 326.863,132.182C326.86,130.42 325.856,129.34 324.094,129.342C322.13,129.346 320.61,130.991 319.172,133.318L319.165,129.271L317.401,129.274L311.598,133.091L311.6,133.973L314.364,133.968L314.383,144.627C314.387,146.831 314.027,147.393 311.744,147.717L311.746,148.96L322.365,148.941L322.362,147.699ZM343.23,143.013C343.224,139.287 340.137,138.13 337.25,137.214C334.403,136.297 332.438,135.699 332.435,133.615C332.433,132.493 333.272,131.45 334.915,131.447C336.959,131.444 338.765,132.682 340.933,135.123L341.974,134.64L340.442,129.674L339.801,129.675L339.081,130.277C337.958,129.799 336.675,129.521 335.313,129.523C331.065,129.53 328.305,131.98 328.312,135.666C328.317,139.393 331.405,140.47 334.292,141.426C337.139,142.383 339.103,142.941 339.106,145.065C339.109,146.387 338.109,147.39 336.186,147.394C333.501,147.399 331.454,145.639 329.004,142.518L327.923,142.92L329.497,149.169L330.178,149.168L331.339,148.324C332.662,148.963 334.146,149.321 335.788,149.318C339.876,149.311 343.237,146.901 343.23,143.013ZM350.213,126.211C351.896,126.207 353.256,124.842 353.253,123.119C353.25,121.596 352.086,120.357 350.523,120.359C348.76,120.362 347.44,121.727 347.443,123.41C347.446,124.973 348.61,126.213 350.213,126.211ZM355.941,147.639C353.456,147.283 353.095,146.763 353.091,144.559L353.063,129.211L351.1,129.215L345.217,133.072L345.218,133.953L348.063,133.948L348.082,144.568C348.086,146.772 347.686,147.293 345.242,147.658L345.244,148.901L355.943,148.882L355.941,147.639ZM371.167,147.051L370.563,145.77C369.482,146.253 368.521,146.495 367.68,146.497C365.797,146.5 365.314,145.539 365.312,144.216L365.29,132.154L370.379,132.146L370.375,129.861L365.286,129.87L365.279,126.144L364.559,126.145L357.354,130.886L357.356,132.169L360.281,132.163L360.305,145.267C360.31,147.872 361.794,149.272 364.72,149.267C367.004,149.263 369.246,148.498 371.167,147.051ZM381.875,152.082L389.419,135.358C390.896,132.069 391.375,131.347 392.938,130.944L392.936,129.821L385.041,129.836L385.043,130.958C387.648,131.514 387.932,132.836 386.734,135.643L383.702,142.902L379.92,134.373C379.115,132.491 379.233,131.409 381.998,131.083L381.996,129.841L371.457,129.86L371.459,131.102C372.702,131.42 373.184,131.94 374.27,134.182L380.987,148.597L379.869,151.003C379.23,152.407 378.632,153.45 377.951,154.052C377.468,152.41 376.544,151.53 375.102,151.533C373.659,151.535 372.419,152.499 372.422,154.382C372.426,156.266 373.95,157.666 375.754,157.663C378.318,157.658 379.919,156.373 381.875,152.082Z" style="fill:rgb(34,31,32);fill-rule:nonzero;"/>
        <path d="M229.84,80.8C229.832,76.111 231.152,74.907 233.435,74.261L233.433,73.019L223.736,73.036L223.738,74.279C226.023,74.916 227.348,76.115 227.356,80.804L227.381,94.91L206.908,74.309C205.784,73.189 205.343,73.069 204.622,73.07L197.048,73.084L197.051,74.326C198.694,74.483 199.657,75.123 201.543,76.922C202.145,77.483 202.708,78.163 202.709,79.285L202.738,95.354C202.746,100.042 201.426,101.247 199.143,101.892L199.145,103.134L208.842,103.117L208.84,101.875C206.555,101.238 205.23,100.038 205.222,95.35L205.195,80.202L228.237,103.283L229.88,103.28L229.84,80.8ZM255.988,93.297C255.979,88.047 252.445,83.645 245.994,83.656C239.502,83.668 235.624,88.363 235.633,93.813C235.643,99.063 239.177,103.464 245.628,103.453C252.119,103.442 255.998,98.746 255.988,93.297ZM240.638,91.52C240.632,87.914 242.19,85.627 245.477,85.621C249.724,85.613 250.976,90.821 250.983,95.589C250.99,99.196 249.432,101.483 246.145,101.488C241.898,101.496 240.646,96.289 240.638,91.52ZM269.588,101.767C266.982,101.371 266.62,100.811 266.616,98.327L266.602,90.072C267.4,88.628 268.16,87.585 268.96,86.862C268.963,88.424 270.047,89.424 271.409,89.422C272.771,89.42 274.092,88.336 274.088,86.252C274.085,84.488 273.081,83.408 271.318,83.411C269.354,83.415 267.835,85.061 266.396,87.387L266.39,83.34L264.626,83.343L258.821,87.16L258.824,88.042L261.588,88.037L261.608,98.696C261.612,100.9 261.252,101.462 258.969,101.786L258.971,103.028L269.59,103.01L269.588,101.767ZM289.221,101.172L288.617,99.891C287.536,100.373 286.574,100.615 285.733,100.617C283.85,100.62 283.367,99.66 283.365,98.337L283.344,86.276L288.433,86.266L288.429,83.982L283.34,83.991L283.333,80.264L282.611,80.266L275.407,85.007L275.409,86.289L278.335,86.284L278.357,99.388C278.362,101.992 279.848,103.392 282.772,103.387C285.057,103.383 287.3,102.618 289.221,101.172ZM300.722,101.713C298.437,101.396 298.075,100.836 298.071,98.632L298.055,89.335C299.976,87.568 301.456,86.684 303.14,86.681C305.103,86.677 305.665,87.678 305.669,89.482L305.685,98.618C305.688,100.822 305.329,101.383 303.046,101.708L303.048,102.95L313.346,102.932L313.344,101.69C311.06,101.374 310.697,100.813 310.693,98.609L310.677,89.032C310.671,85.826 309.305,83.545 305.258,83.551C302.813,83.556 300.411,85.003 298.051,87.011L298.022,71.142L296.54,71.145L290.097,75.363L290.098,76.245L293.022,76.24L293.063,98.641C293.066,100.844 292.707,101.406 290.424,101.731L290.426,102.973L300.724,102.955L300.722,101.713ZM332.614,99.292L331.531,98.452C330.451,99.696 328.811,100.541 326.927,100.544C323.24,100.55 321.151,97.75 320.384,94.104L332.398,90.076C332.15,85.828 329.021,83.509 325.054,83.517C319.483,83.526 315.404,88.022 315.414,93.592C315.424,99.122 318.958,103.323 325.169,103.312C328.976,103.305 331.257,101.618 332.614,99.292ZM320.058,90.778C320.052,87.533 321.411,85.607 324.056,85.602C325.898,85.599 327.063,86.919 327.549,89.523L320.1,92.101C320.059,91.66 320.059,91.219 320.058,90.778ZM348.488,103.111C350.212,103.108 352.054,102.303 353.254,101.459L352.892,100.338C350.929,100.702 350.207,100.423 350.204,99.101L350.186,88.401C350.18,85.195 348.774,83.475 344.246,83.483C339.157,83.492 335.436,86.223 335.44,88.788C335.442,90.03 336.286,91.07 337.729,91.068C339.371,91.065 340.171,89.982 340.409,88.9C340.647,87.657 340.245,86.735 339.644,86.216C340.644,85.733 341.646,85.491 342.688,85.489C344.41,85.486 345.253,86.086 345.256,87.649L345.263,91.656C338.093,93.432 334.81,95 334.816,98.807C334.822,101.732 336.708,103.292 339.673,103.286C341.557,103.283 343.719,102.478 345.56,101.032C345.843,102.354 346.766,103.113 348.488,103.111ZM339.663,97.757C339.66,95.713 340.58,94.75 345.266,93.459L345.276,99.27C344.155,100.153 343.154,100.555 342.153,100.557C340.59,100.56 339.667,99.72 339.663,97.757ZM370.517,96.941C370.51,93.214 367.423,92.057 364.536,91.141C361.689,90.224 359.725,89.627 359.721,87.543C359.719,86.421 360.559,85.377 362.201,85.375C364.245,85.371 366.051,86.61 368.219,89.05L369.26,88.568L367.729,83.601L367.087,83.603L366.367,84.205C365.244,83.726 363.961,83.448 362.599,83.45C358.352,83.458 355.591,85.907 355.598,89.594C355.604,93.32 358.691,94.397 361.578,95.354C364.425,96.311 366.39,96.868 366.393,98.992C366.396,100.314 365.396,101.318 363.472,101.321C360.787,101.325 358.74,99.567 356.291,96.445L355.209,96.848L356.783,103.096L357.465,103.095L358.625,102.251C359.948,102.89 361.432,103.248 363.074,103.245C367.162,103.238 370.523,100.827 370.517,96.941ZM385.671,101.001L385.067,99.72C383.986,100.203 383.025,100.444 382.184,100.446C380.3,100.449 379.817,99.489 379.815,98.167L379.794,86.105L384.883,86.096L384.879,83.812L379.79,83.82L379.783,80.094L379.063,80.095L371.857,84.837L371.86,86.119L374.785,86.113L374.809,99.217C374.813,101.822 376.298,103.222 379.223,103.216C381.507,103.213 383.75,102.447 385.671,101.001ZM404.18,99.166L403.097,98.326C402.017,99.57 400.376,100.414 398.492,100.417C394.806,100.424 392.717,97.623 391.949,93.978L403.964,89.949C403.716,85.702 400.586,83.383 396.619,83.39C391.049,83.4 386.97,87.895 386.979,93.465C386.989,98.996 390.523,103.196 396.734,103.186C400.541,103.179 402.822,101.492 404.18,99.166ZM391.623,90.652C391.617,87.406 392.977,85.48 395.621,85.476C397.464,85.472 398.629,86.793 399.114,89.397L391.665,91.974C391.624,91.534 391.624,91.093 391.623,90.652ZM416.727,101.507C414.121,101.111 413.76,100.55 413.755,98.067L413.74,89.812C414.539,88.367 415.299,87.324 416.099,86.602C416.102,88.164 417.186,89.164 418.548,89.162C419.91,89.159 421.23,88.075 421.228,85.991C421.224,84.228 420.221,83.148 418.457,83.151C416.494,83.154 414.974,84.8 413.535,87.127L413.528,83.08L411.766,83.083L405.962,86.9L405.963,87.781L408.729,87.776L408.747,98.436C408.751,100.64 408.392,101.201 406.107,101.526L406.11,102.768L416.729,102.749L416.727,101.507ZM432.674,101.479C430.389,101.162 430.027,100.602 430.023,98.399L430.007,89.142C432.008,87.335 433.648,86.45 435.092,86.448C437.055,86.444 437.617,87.445 437.621,89.248L437.637,98.385C437.641,100.589 437.281,101.15 434.998,101.475L435,102.717L445.298,102.699L445.296,101.457C443.012,101.14 442.649,100.58 442.646,98.376L442.629,88.798C442.623,85.593 441.257,83.311 437.21,83.318C434.726,83.322 432.283,84.85 429.883,86.898L429.876,83.051L428.033,83.054L422.229,86.871L422.23,87.753L424.996,87.748L425.015,98.407C425.019,100.611 424.659,101.173 422.375,101.497L422.378,102.739L432.676,102.721L432.674,101.479Z" style="fill:rgb(34,31,32);fill-rule:nonzero;"/>
        <path d="M172.536,63.273C172.536,43.669 179.124,37.241 192.3,32.259L192.3,29.046L149.075,29.046L149.075,32.259C162.251,37.241 168.84,43.669 168.84,63.273L168.84,120.798L77.407,33.384C73.23,29.528 72.105,29.046 69.373,29.046L34.985,29.046L34.985,32.259C42.538,33.063 47.037,35.152 57.964,45.757L62.142,49.775L62.142,115.335C62.142,134.939 55.554,141.367 42.377,146.348L42.377,149.562L85.603,149.562L85.603,146.348C72.426,141.367 65.838,134.939 65.838,115.335L65.838,52.828L169.322,150.365L172.536,150.365L172.536,63.273Z" style="fill:rgb(34,31,32);fill-rule:nonzero;"/>
    </g>
</svg>
