<?xml version="1.0" encoding="UTF-8" standalone="no"?>
<!DOCTYPE svg PUBLIC "-//W3C//DTD SVG 1.1//EN" "http://www.w3.org/Graphics/SVG/1.1/DTD/svg11.dtd">
<svg width="100%" height="100%" viewBox="0 0 600 534" version="1.1" xmlns="http://www.w3.org/2000/svg" xmlns:xlink="http://www.w3.org/1999/xlink" xml:space="preserve" xmlns:serif="http://www.serif.com/" style="fill-rule:evenodd;clip-rule:evenodd;stroke-linejoin:round;stroke-miterlimit:2;">
    <g id="Layer-1" serif:id="Layer 1" transform="matrix(4.53124,0,0,4.53124,-117.572,-41.7666)">
        <g transform="matrix(1,0,0,1,47.4609,35.9735)">
            <path d="M45.079,-1.661L36.806,-16.933L54.219,-16.933L45.079,-1.661ZM55.307,-16.933L71.013,-16.933L62.82,-2.435L55.307,-16.933ZM72.556,-16.933L89.162,-16.933L81.248,-2.362L72.556,-16.933ZM90.192,-16.933L90.205,-16.933L90.21,-16.924L90.192,-16.933ZM90.714,-15.936L98.852,0L82.059,0L90.714,-15.936ZM80.514,0L63.558,0L71.807,-14.597L80.514,0ZM62.01,-0L46.229,0L54.686,-14.131C54.686,-14.131 60.016,-3.846 62.01,-0ZM8.008,0L-9.06,0L-0.524,-15.954L8.008,0ZM-0.005,-16.923L0,-16.933L0.013,-16.933L-0.005,-16.923ZM1.039,-16.933L17.01,-16.933L8.805,-2.412L1.039,-16.933ZM18.554,-16.933L35.26,-16.933L27.028,-2.354L24.121,-7.356L18.554,-16.933ZM43.886,0L27.812,0L36.016,-14.529L43.886,0ZM26.268,0L9.555,0L17.794,-14.58L22.53,-6.432L26.268,0Z" style="fill:rgb(213,34,41);"/>
        </g>
        <g transform="matrix(1,0,0,1,47.4609,35.9735)">
            <path d="M45.079,-1.661L44.896,-16.933L54.219,-16.933L45.079,-1.661ZM55.307,-16.933L71.013,-16.933L62.82,-2.435L55.307,-16.933ZM72.556,-16.933L89.162,-16.933L81.248,-2.362L72.556,-16.933ZM90.192,-16.933L90.205,-16.933L90.21,-16.924L90.192,-16.933ZM90.714,-15.936L98.852,0L82.059,0L90.714,-15.936ZM80.514,0L63.558,0L71.807,-14.597L80.514,0ZM62.01,-0L46.229,0L54.686,-14.131C54.686,-14.131 60.016,-3.846 62.01,-0Z" style="fill:rgb(157,30,35);"/>
        </g>
        <g transform="matrix(1,0,0,1,36.9814,117.028)">
            <path d="M55.515,-0L0,-79.026L110.345,-79.026L104.806,-71.043L55.515,0.061L55.515,-0ZM16.893,-72.115L55.376,-15.996L94.466,-72.115L80.47,-72.115L55.515,-33.251L30.621,-72.115L16.893,-72.115Z" style="fill:rgb(213,34,41);"/>
        </g>
        <g transform="matrix(1,0,0,1,36.9814,117.028)">
            <path d="M55.515,-33.251L55.172,-79.026L110.345,-79.026L104.806,-71.043L55.515,0.061L55.515,-0L55.445,-16.096L94.466,-72.115L80.47,-72.115L55.515,-33.251ZM55.376,-15.996L55.445,-16.096L55.376,-15.996Z" style="fill:rgb(157,30,35);"/>
        </g>
    </g>
</svg>
